# xmcd
#
# Track frame offsets:
#	150
#	13302
#	28168
#	43932
#	56725
#	73884
#	91775
#	108426
#	124148
#	140341
#	157135
#	172420
#
# Disc length: 2484 seconds
# Revision: 0
# Processed by: cddbd v1.5.2PL0 Copyright (c) Steve Scherf et al.
# Submitted via: dBpowerAMP V12.0
#
DISCID=b709b20c
DTITLE=Arty Hill - Bar of Gold
DYEAR=2008
DGENRE=Country
TTITLE0=Toer-up Junction
TTITLE1=I'm Thinkin' It's Better This Way
TTITLE2=Hall of Fame Nothing
TTITLE3=A Wreck of a Man
TTITLE4=Bar of Gold
TTITLE5=Nashville Moon
TTITLE6=Step Back Mama
TTITLE7=Bring Out The Bible (We Ain't Got a Prayer)
TTITLE8=I Might Have Been a Lawyer ( But I Couldn't Pass ther Bar)
TTITLE9=Don't Take It Out On Tina
TTITLE10=If You See Me Comin'
TTITLE11=Hankin' Around
EXTD=
EXTT0=
EXTT1=
EXTT2=
EXTT3=
EXTT4=
EXTT5=
EXTT6=
EXTT7=
EXTT8=
EXTT9=
EXTT10=
EXTT11=
PLAYORDER=
